<svg width="105" height="24" viewBox="0 0 105 24" fill="none" xmlns="http://www.w3.org/2000/svg">
<g id="Lightricks-Logotype-Main">
<g id="Vector">
<path d="M63.392 8.13051C63.4432 8.13687 63.4976 8.12097 63.5392 8.08598C63.5809 8.05099 63.6033 8.00327 63.6065 7.9492L63.6801 6.14244C63.6897 5.90388 63.5232 5.69712 63.2895 5.65577C61.5032 5.32495 59.8738 6.15199 59.0446 7.52614V6.35238C59.0446 6.08837 58.8301 5.87525 58.5644 5.87525L57.0566 5.87525C56.7909 5.87525 56.5764 6.08837 56.5764 6.35238V17.4919C56.5764 17.7559 56.7909 17.9691 57.0566 17.9691H58.5644C58.8301 17.9691 59.0446 17.7559 59.0446 17.4919V11.8999C59.0446 10.6243 59.3327 9.67643 59.9026 9.07842C60.7349 8.20049 62.2587 8.00646 63.392 8.13051Z" fill="#0C0E19"/>
<path d="M13.1828 17.9722C12.9171 17.9722 12.7027 17.759 12.7027 17.495L12.7027 6.35549C12.7027 6.09148 12.9171 5.87835 13.1828 5.87835L14.6906 5.87835C14.9564 5.87835 15.1708 6.09148 15.1708 6.35549L15.1708 17.495C15.1708 17.759 14.9564 17.9722 14.6906 17.9722H13.1828ZM13.9351 3.36862C13.0132 3.36862 12.2609 2.61474 12.2609 1.70182C12.2609 0.788902 13.0164 0.0350268 13.9351 0.0350268C14.8603 0.0350268 15.6126 0.795264 15.6126 1.70182C15.6094 2.61792 14.8507 3.36862 13.9351 3.36862Z" fill="#0C0E19"/>
<path d="M66.2763 17.9721C66.0106 17.9721 65.7961 17.759 65.7961 17.495V6.35546C65.7961 6.09144 66.0106 5.87832 66.2763 5.87832H67.7841C68.0498 5.87832 68.2643 6.09144 68.2643 6.35546V17.495C68.2643 17.759 68.0498 17.9721 67.7841 17.9721H66.2763Z" fill="#0C0E19"/>
<path d="M91.3968 17.9721C91.2592 17.9721 91.1311 17.9149 91.0383 17.8131L85.7593 11.9475V17.495C85.7593 17.759 85.5449 17.9721 85.2791 17.9721H83.7713C83.5056 17.9721 83.2911 17.759 83.2911 17.495V0.477136C83.2911 0.21312 83.5056 0 83.7713 0L85.2791 0C85.5449 0 85.7593 0.21312 85.7593 0.477136V10.9137L90.6381 6.04373C90.7277 5.95466 90.8494 5.90376 90.9774 5.90376L93.7434 5.90376C93.8202 5.90376 93.8906 5.95148 93.9194 6.02146C93.9482 6.09462 93.9322 6.17414 93.8746 6.22822L88.5253 11.4004L94.3772 17.6509C94.4284 17.7049 94.4444 17.7876 94.4124 17.8576C94.3836 17.9276 94.3132 17.9721 94.2364 17.9721H91.3968Z" fill="#0C0E19"/>
<path d="M42.4011 17.9721C42.1353 17.9721 41.9209 17.759 41.9209 17.495V10.8469C41.9209 9.09739 41.0565 7.87911 39.2862 7.87911C37.0485 7.87911 36.0465 9.49819 36.0465 11.7503V17.495C36.0465 17.759 35.832 17.9721 35.5663 17.9721H34.0585C33.7928 17.9721 33.5783 17.759 33.5783 17.495V0.477136C33.5783 0.21312 33.7928 0 34.0585 0L35.5663 0C35.832 0 36.0465 0.21312 36.0465 0.477136V7.50376C36.7956 6.19323 38.4122 5.57295 39.9425 5.57295C42.5867 5.57295 44.3859 7.23656 44.3859 10.2139V17.4918C44.3859 17.7558 44.1714 17.9689 43.9057 17.9689H42.4011V17.9721Z" fill="#0C0E19"/>
<path d="M0.480196 17.9721C0.214488 17.9721 0 17.759 0 17.495L0 0.477136C0 0.21312 0.214488 0 0.480196 0L2.13846 0C2.40417 0 2.61866 0.21312 2.61866 0.477136L2.61866 15.5196L10.353 15.5196C10.6187 15.5196 10.8332 15.7328 10.8332 15.9968L10.8332 17.495C10.8332 17.759 10.6187 17.9721 10.353 17.9721H0.480196Z" fill="#0C0E19"/>
<path d="M81.175 16.0286C81.2679 16.1177 81.3159 16.2417 81.3159 16.3722C81.3127 16.4994 81.2583 16.6234 81.1655 16.7125C79.9906 17.8195 78.5372 18.2934 76.8277 18.2934C73.1814 18.2934 70.4635 15.8409 70.4635 11.9952C70.4635 8.33082 72.9669 5.62068 76.8277 5.62068C78.4699 5.62068 79.9842 6.12963 81.1942 7.23659C81.2935 7.32883 81.3511 7.45607 81.3511 7.58967C81.3479 7.72326 81.2935 7.8505 81.1942 7.94275L80.1154 8.91928C79.9362 9.08151 79.664 9.08787 79.4784 8.93201C78.7357 8.30537 77.7657 7.92048 76.7284 7.92048C74.3339 7.92048 73.0822 9.84175 73.0822 12.0429C73.0822 14.1932 74.542 15.9904 76.8533 15.9904C77.8009 15.9904 78.7229 15.6755 79.4559 15.0234C79.5584 14.9376 79.6384 14.8676 79.8081 14.8676C79.9426 14.8676 80.061 14.9217 80.1474 15.0075L81.175 16.0286Z" fill="#0C0E19"/>
<path d="M98.0299 9.11018C98.0299 8.46764 98.6925 7.87599 99.941 7.87599C100.802 7.87599 101.599 8.23225 102.192 8.75074C102.361 8.90024 102.617 8.91296 102.8 8.773L103.891 7.95233C103.997 7.8728 104.064 7.75511 104.08 7.62469C104.096 7.49428 104.055 7.36386 103.968 7.26525C103.059 6.19647 101.75 5.57619 100.072 5.57619C97.6073 5.57619 95.4176 6.93125 95.4176 9.35829C95.4176 10.5002 95.9618 11.7949 97.7673 12.4151C99.6081 13.0481 101.974 13.0513 101.974 14.5591C101.974 15.5229 100.773 15.9714 99.6433 15.9714C98.7598 15.9714 97.7129 15.577 96.983 14.8803C96.807 14.7118 96.5348 14.7022 96.346 14.8549L95.312 15.701C95.2127 15.7837 95.1487 15.9014 95.1391 16.0318C95.1295 16.1623 95.1711 16.2895 95.2575 16.3849C96.2915 17.5459 97.8026 18.2903 99.6177 18.2903C102.224 18.2903 104.599 17.0338 104.599 14.4446C104.596 9.72728 98.0299 11.6644 98.0299 9.11018Z" fill="#0C0E19"/>
<path d="M51.0254 14.3365C51.0093 14.0152 50.9997 13.6844 50.9997 13.3504V8.04782H53.7785C54.0442 8.04782 54.2587 7.8347 54.2587 7.57068V6.37466C54.2587 6.11064 54.0442 5.89752 53.7785 5.89752L50.9997 5.89752V3.03471C50.9997 2.77069 50.7852 2.55757 50.5195 2.55757H49.0117C48.746 2.55757 48.5316 2.77069 48.5316 3.03471V5.89752L46.3835 5.89752C46.1178 5.89752 45.9033 6.11064 45.9033 6.37466V7.57068C45.9033 7.8347 46.1178 8.04782 46.3835 8.04782H48.5316V14.1552C48.5316 15.6279 48.5828 16.8176 49.6008 17.6001C50.75 18.4844 52.9173 18.4176 54.025 17.9945C54.2106 17.9245 54.3323 17.7464 54.3323 17.5492V15.9492C54.3323 15.8856 54.3003 15.8283 54.249 15.7933C54.1978 15.7583 54.1338 15.7488 54.073 15.7711C52.5428 16.3245 51.115 16.0446 51.0254 14.3365Z" fill="#0C0E19"/>
<path d="M28.5459 5.87838C28.2802 5.87838 28.0657 6.0915 28.0657 6.35551V7.4561C27.1278 6.23145 25.4663 5.57619 23.9425 5.57619C20.1553 5.57619 17.7544 8.38175 17.7544 11.9253C17.7544 15.4847 20.3794 18.1249 23.9425 18.1249C25.5431 18.1249 27.1534 17.495 28.0657 16.1304C28.0657 17.8036 28.5363 21.7002 23.84 21.7002C22.3482 21.7257 20.9268 21.1626 19.8672 20.1638C19.7712 20.0716 19.6367 20.0239 19.5055 20.0334C19.3742 20.043 19.2462 20.1066 19.1629 20.2115L18.1833 21.4266C18.0201 21.627 18.0489 21.9229 18.2474 22.0883C19.7008 23.3097 21.3718 24 23.8913 24C27.7392 24 30.5339 21.5507 30.5339 17.7781L30.5339 6.35869C30.5339 6.09468 30.3194 5.88156 30.0537 5.88156H28.5459V5.87838ZM24.2178 15.8219C21.8104 15.8219 20.3698 14.2569 20.3698 11.9253C20.3698 9.44735 21.9641 7.87599 24.2178 7.87599C26.4843 7.87599 28.0657 9.46008 28.0657 11.9253C28.0657 14.2569 26.6284 15.8219 24.2178 15.8219Z" fill="#0C0E19"/>
<path d="M67.0285 3.36862C66.1066 3.36862 65.3542 2.61474 65.3542 1.70182C65.3542 0.788902 66.1098 0.0350268 67.0285 0.0350268C67.9537 0.0350268 68.706 0.795264 68.706 1.70182C68.706 2.61792 67.9473 3.36862 67.0285 3.36862Z" fill="#0C0E19"/>
</g>
</g>
</svg>
