<svg width="28" height="28" viewBox="0 0 28 28" fill="none" xmlns="http://www.w3.org/2000/svg">
<g id="Icons/Actions/Close/Small">
<path id="&#226;&#134;&#179; Object Color" fill-rule="evenodd" clip-rule="evenodd" d="M19.2071 10.2071C19.5976 9.81658 19.5976 9.18342 19.2071 8.79289C18.8166 8.40237 18.1834 8.40237 17.7929 8.79289L14 12.5858L10.2071 8.79289C9.81658 8.40237 9.18342 8.40237 8.79289 8.79289C8.40237 9.18342 8.40237 9.81658 8.79289 10.2071L12.5858 14L8.79289 17.7929C8.40237 18.1834 8.40237 18.8166 8.79289 19.2071C9.18342 19.5976 9.81658 19.5976 10.2071 19.2071L14 15.4142L17.7929 19.2071C18.1834 19.5976 18.8166 19.5976 19.2071 19.2071C19.5976 18.8166 19.5976 18.1834 19.2071 17.7929L15.4142 14L19.2071 10.2071Z" fill="#2C2D30"/>
</g>
</svg>
