<svg width="14" height="14" viewBox="0 0 14 14" fill="none" xmlns="http://www.w3.org/2000/svg">
<g id="Icons-list">
<g id="Group ">
<path id="Vector" d="M11.5 2.5H2.5C1.94772 2.5 1.5 2.94772 1.5 3.5V5C1.5 5.55228 1.94771 6 2.5 6H11.5C12.0523 6 12.5 5.55228 12.5 5V3.5C12.5 2.94772 12.0523 2.5 11.5 2.5Z" stroke="#161719" stroke-linecap="round" stroke-linejoin="round"/>
<path id="Vector_2" d="M11.5 8H2.5C1.94772 8 1.5 8.44772 1.5 9V10.5C1.5 11.0523 1.94771 11.5 2.5 11.5H11.5C12.0523 11.5 12.5 11.0523 12.5 10.5V9C12.5 8.44772 12.0523 8 11.5 8Z" stroke="#161719" stroke-linecap="round" stroke-linejoin="round"/>
</g>
</g>
</svg>
