<svg width="16" height="16" viewBox="0 0 16 16" fill="none" xmlns="http://www.w3.org/2000/svg">
<g id="Search">
<path id="Vector" fill-rule="evenodd" clip-rule="evenodd" d="M6.85707 1.53571C3.91813 1.53571 1.53564 3.91819 1.53564 6.85713C1.53564 9.79608 3.91813 12.1786 6.85707 12.1786C8.05607 12.1786 9.16245 11.782 10.0522 11.1129L12.041 13.1017C12.3339 13.3946 12.8088 13.3946 13.1017 13.1017C13.3946 12.8088 13.3946 12.334 13.1017 12.0411L11.1129 10.0523C11.782 9.16251 12.1785 8.05613 12.1785 6.85713C12.1785 3.91819 9.79602 1.53571 6.85707 1.53571ZM3.03564 6.85713C3.03564 4.74662 4.74656 3.03571 6.85707 3.03571C8.96759 3.03571 10.6785 4.74662 10.6785 6.85713C10.6785 8.96765 8.96759 10.6786 6.85707 10.6786C4.74656 10.6786 3.03564 8.96765 3.03564 6.85713Z" fill="#A3A6AC"/>
</g>
</svg>
